<svg width="2182" height="1796" viewBox="0 0 2182 1796" fill="none" xmlns="http://www.w3.org/2000/svg">
<path d="M218 1039.6C218 1039.6 329.372 835.262 456.182 788.714C613.324 731.031 718.58 949.774 873.559 886.506C947.922 856.148 1014.61 767.198 1053.9 705.303C1070.21 679.614 1111.29 679.636 1127.57 705.339C1166.78 767.233 1233.36 856.154 1307.71 886.506C1462.69 949.774 1567.94 731.031 1725.08 788.714C1851.89 835.262 1963.27 1039.6 1963.27 1039.6M384.273 1024.78C384.273 1024.78 442.98 951.607 493.968 923.132C640.563 841.264 759.169 1092.87 912.073 1023.5C968.662 997.825 1022.29 933.894 1057.08 885.16C1073.24 862.511 1108.26 862.531 1124.38 885.21C1159.03 933.937 1212.41 997.834 1268.97 1023.5C1421.88 1092.87 1540.48 841.264 1687.08 923.132C1738.07 951.607 1796.77 1024.78 1796.77 1024.78M512.129 1113.22C512.129 1113.22 542.795 1076.16 568.123 1059.57C678.431 987.275 759.986 1210.17 886.397 1172.58C950.174 1153.62 1033.05 1072.76 1070.65 1033.36C1081.49 1021.99 1100.02 1022.01 1110.84 1033.39C1148.32 1072.81 1230.89 1153.63 1294.65 1172.58C1421.06 1210.17 1502.62 987.275 1612.92 1059.57C1638.25 1076.16 1668.92 1113.22 1668.92 1113.22M1963.27 161.294C1963.27 161.294 1851.89 365.627 1725.08 412.175C1567.94 469.858 1462.69 251.115 1307.71 314.383C1233.35 344.738 1166.77 433.593 1127.56 495.427C1111.27 521.111 1070.22 521.133 1053.91 495.463C1014.63 433.627 947.931 344.744 873.56 314.383C718.582 251.115 613.326 469.858 456.183 412.175C329.374 365.627 218.001 161.294 218.001 161.294M1796.77 176.108C1796.77 176.108 1738.07 249.282 1687.08 277.757C1540.48 359.625 1421.88 108.019 1268.97 177.39C1212.45 203.032 1159.07 266.828 1124.39 315.533C1108.26 338.192 1073.26 338.203 1057.1 315.56C1022.35 266.852 968.823 203.037 912.293 177.39C759.389 108.019 640.783 359.625 494.188 277.757C443.2 249.282 384.493 176.108 384.493 176.108M1668.92 87.6723C1668.92 87.6723 1638.25 124.725 1612.92 141.324C1502.62 213.614 1421.06 -9.27952 1294.65 28.3045C1231.01 47.2259 1148.62 129.342 1111.05 169.631C1100.19 181.281 1081.34 181.29 1070.46 169.651C1032.82 129.37 950.268 47.229 886.617 28.3045C760.206 -9.27952 678.651 213.614 568.343 141.324C543.014 124.725 512.349 87.6723 512.349 87.6723" stroke="#1C4855" stroke-width="46" stroke-linecap="round"/>
<path d="M69.3721 1727.84H171.724V1755H40.2672V1366.45H69.3721V1727.84ZM305.868 1364.51C315.246 1364.51 324.139 1366.29 332.547 1369.85C340.956 1373.4 348.232 1378.42 354.376 1384.88C360.52 1391.03 365.371 1398.3 368.929 1406.71C372.486 1415.12 374.264 1424.01 374.264 1433.39V1755H345.16V1647.8H247.658V1755H218.553V1647.8H198.18V1620.63H218.553V1433.39C218.553 1424.01 220.332 1415.12 223.889 1406.71C227.447 1398.3 232.297 1391.03 238.442 1384.88C244.91 1378.42 252.347 1373.4 260.756 1369.85C269.164 1366.29 278.057 1364.51 287.435 1364.51H305.868ZM345.16 1431.45C345.16 1420.46 341.279 1411.08 333.518 1403.32C326.08 1395.55 316.863 1391.67 305.868 1391.67H287.435C276.44 1391.67 267.062 1395.55 259.3 1403.32C251.539 1411.08 247.658 1420.46 247.658 1431.45V1620.63H345.16V1431.45ZM554.313 1556.6V1431.45C554.313 1420.46 550.432 1411.08 542.671 1403.32C535.233 1395.55 526.016 1391.67 515.021 1391.67H496.588C485.593 1391.67 476.215 1395.55 468.454 1403.32C460.692 1411.08 456.812 1420.46 456.812 1431.45V1690C456.812 1700.99 460.692 1710.37 468.454 1718.13C476.215 1725.9 485.593 1729.78 496.588 1729.78H515.021C526.016 1729.78 535.233 1725.9 542.671 1718.13C550.432 1710.37 554.313 1700.99 554.313 1690V1647.8H495.133V1620.63H583.418V1688.06C583.418 1697.76 581.639 1706.82 578.082 1715.22C574.525 1723.31 569.674 1730.58 563.529 1737.05C557.385 1743.2 550.109 1748.05 541.701 1751.6C533.293 1755.16 524.4 1756.94 515.021 1756.94H496.588C487.21 1756.94 478.317 1755.16 469.909 1751.6C461.501 1748.05 454.063 1743.2 447.595 1737.05C441.451 1730.58 436.6 1723.31 433.043 1715.22C429.485 1706.82 427.707 1697.76 427.707 1688.06V1433.39C427.707 1424.01 429.485 1415.12 433.043 1406.71C436.6 1398.3 441.451 1391.03 447.595 1384.88C454.063 1378.42 461.501 1373.4 469.909 1369.85C478.317 1366.29 487.21 1364.51 496.588 1364.51H515.021C524.4 1364.51 533.293 1366.29 541.701 1369.85C550.109 1373.4 557.385 1378.42 563.529 1384.88C569.674 1391.03 574.525 1398.3 578.082 1406.71C581.639 1415.12 583.418 1424.01 583.418 1433.39V1556.6H554.313ZM722.033 1364.51C731.412 1364.51 740.305 1366.29 748.713 1369.85C757.121 1373.4 764.397 1378.42 770.542 1384.88C776.686 1391.03 781.537 1398.3 785.094 1406.71C788.651 1415.12 790.43 1424.01 790.43 1433.39V1688.06C790.43 1697.76 788.651 1706.82 785.094 1715.22C781.537 1723.31 776.686 1730.58 770.542 1737.05C764.397 1743.2 757.121 1748.05 748.713 1751.6C740.305 1755.16 731.412 1756.94 722.033 1756.94H703.6C694.222 1756.94 685.329 1755.16 676.921 1751.6C668.513 1748.05 661.075 1743.2 654.607 1737.05C648.463 1730.58 643.612 1723.31 640.055 1715.22C636.497 1706.82 634.719 1697.76 634.719 1688.06V1433.39C634.719 1424.01 636.497 1415.12 640.055 1406.71C643.612 1398.3 648.463 1391.03 654.607 1384.88C661.075 1378.42 668.513 1373.4 676.921 1369.85C685.329 1366.29 694.222 1364.51 703.6 1364.51H722.033ZM761.325 1431.45C761.325 1420.46 757.444 1411.08 749.683 1403.32C742.245 1395.55 733.029 1391.67 722.033 1391.67H703.6C692.605 1391.67 683.227 1395.55 675.466 1403.32C667.704 1411.08 663.824 1420.46 663.824 1431.45V1690C663.824 1700.99 667.704 1710.37 675.466 1718.13C683.227 1725.9 692.605 1729.78 703.6 1729.78H722.033C733.029 1729.78 742.245 1725.9 749.683 1718.13C757.444 1710.37 761.325 1700.99 761.325 1690V1431.45ZM939.695 1364.51C949.073 1364.51 957.966 1366.29 966.374 1369.85C974.782 1373.4 982.058 1378.42 988.203 1384.88C994.347 1391.03 999.198 1398.3 1002.76 1406.71C1006.31 1415.12 1008.09 1424.01 1008.09 1433.39V1755H978.986V1647.8H881.485V1755H852.38V1647.8H832.007V1620.63H852.38V1433.39C852.38 1424.01 854.159 1415.12 857.716 1406.71C861.273 1398.3 866.124 1391.03 872.268 1384.88C878.736 1378.42 886.174 1373.4 894.582 1369.85C902.99 1366.29 911.883 1364.51 921.262 1364.51H939.695ZM978.986 1431.45C978.986 1420.46 975.105 1411.08 967.344 1403.32C959.906 1395.55 950.69 1391.67 939.695 1391.67H921.262C910.266 1391.67 900.888 1395.55 893.127 1403.32C885.366 1411.08 881.485 1420.46 881.485 1431.45V1620.63H978.986V1431.45ZM1268.46 1366.45C1277.84 1366.45 1286.73 1368.23 1295.14 1371.79C1303.55 1375.34 1310.83 1380.36 1316.97 1386.82C1323.44 1392.97 1328.45 1400.24 1332.01 1408.65C1335.56 1417.06 1337.34 1425.95 1337.34 1435.33V1502.27C1337.34 1511.65 1335.56 1520.54 1332.01 1528.95C1328.45 1537.04 1323.44 1544.15 1316.97 1550.3C1310.83 1556.44 1303.55 1561.29 1295.14 1564.85C1286.73 1568.41 1277.84 1570.18 1268.46 1570.18H1210.74V1755H1181.63V1570.18H1161.26V1543.02H1181.63V1366.45H1268.46ZM1308.24 1433.39C1308.24 1422.4 1304.36 1413.02 1296.6 1405.26C1288.84 1397.5 1279.46 1393.61 1268.46 1393.61H1210.74V1543.02H1268.46C1279.46 1543.02 1288.84 1539.14 1296.6 1531.38C1304.36 1523.62 1308.24 1514.24 1308.24 1503.24V1433.39ZM1421.07 1755H1391.96V1570.18H1371.59V1543.02H1391.96V1366.45H1478.79C1488.17 1366.45 1497.06 1368.23 1505.47 1371.79C1513.88 1375.34 1521.15 1380.36 1527.3 1386.82C1533.77 1392.97 1538.78 1400.24 1542.34 1408.65C1545.89 1417.06 1547.67 1425.95 1547.67 1435.33V1502.27C1547.67 1514.56 1544.44 1525.39 1537.97 1534.77C1531.83 1543.83 1523.74 1551.1 1513.72 1556.6C1523.74 1562.1 1531.83 1569.54 1537.97 1578.92C1544.44 1587.97 1547.67 1598.48 1547.67 1610.45V1755H1518.57V1609.48C1518.57 1598.48 1514.69 1589.26 1506.92 1581.83C1499.16 1574.06 1489.79 1570.18 1478.79 1570.18H1421.07V1755ZM1421.07 1543.02H1478.79C1489.79 1543.02 1499.16 1539.14 1506.92 1531.38C1514.69 1523.62 1518.57 1514.24 1518.57 1503.24V1433.39C1518.57 1422.4 1514.69 1413.02 1506.92 1405.26C1499.16 1397.5 1489.79 1393.61 1478.79 1393.61H1421.07V1543.02ZM1632.63 1755H1603.53V1366.45H1632.63V1755ZM1888.62 1364.51C1897.99 1364.51 1906.89 1366.29 1915.29 1369.85C1923.7 1373.4 1930.98 1378.42 1937.12 1384.88C1943.59 1391.03 1948.6 1398.3 1952.16 1406.71C1955.72 1415.12 1957.5 1424.01 1957.5 1433.39V1755H1928.39V1431.45C1928.39 1420.46 1924.51 1411.08 1916.75 1403.32C1908.99 1395.55 1899.61 1391.67 1888.62 1391.67H1876.97C1865.98 1391.67 1856.6 1395.55 1848.84 1403.32C1841.4 1411.08 1837.68 1420.46 1837.68 1431.45V1755H1808.58V1431.45C1808.58 1420.46 1804.7 1411.08 1796.93 1403.32C1789.17 1395.55 1779.8 1391.67 1768.8 1391.67H1757.16C1746.16 1391.67 1736.78 1395.55 1729.02 1403.32C1721.26 1411.08 1717.38 1420.46 1717.38 1431.45V1755H1688.28V1433.39C1688.28 1424.01 1690.06 1415.12 1693.61 1406.71C1697.17 1398.3 1702.02 1391.03 1708.17 1384.88C1714.63 1378.42 1722.07 1373.4 1730.48 1369.85C1738.89 1366.29 1747.78 1364.51 1757.16 1364.51H1768.8C1780.77 1364.51 1791.28 1367.58 1800.33 1373.73C1809.71 1379.87 1817.31 1387.79 1823.13 1397.5C1828.63 1387.79 1836.06 1379.87 1845.44 1373.73C1854.82 1367.58 1865.33 1364.51 1876.97 1364.51H1888.62ZM2047.23 1543.02H2125.33V1570.18H2047.23V1688.06C2047.23 1699.05 2051.11 1708.43 2058.87 1716.19C2066.64 1723.95 2076.01 1727.84 2087.01 1727.84H2151.04V1755H2087.01C2077.63 1755 2068.74 1753.22 2060.33 1749.66C2051.92 1746.11 2044.48 1741.26 2038.02 1735.11C2031.87 1728.64 2027.02 1721.37 2023.46 1713.28C2019.91 1704.87 2018.13 1695.82 2018.13 1686.12V1570.18H1997.75V1543.02H2018.13V1435.33C2018.13 1425.95 2019.91 1417.06 2023.46 1408.65C2027.02 1400.24 2031.87 1392.97 2038.02 1386.82C2044.48 1380.36 2051.92 1375.34 2060.33 1371.79C2068.74 1368.23 2077.63 1366.45 2087.01 1366.45H2151.04V1393.61H2087.01C2076.01 1393.61 2066.64 1397.5 2058.87 1405.26C2051.11 1413.02 2047.23 1422.4 2047.23 1433.39V1543.02Z" fill="#65AC9A"/>
</svg>
