<svg width="2112" height="393" viewBox="0 0 2112 393" fill="none" xmlns="http://www.w3.org/2000/svg">
<path d="M29.3721 363.835H131.724V391H0.267242V2.4501H29.3721V363.835ZM265.868 0.509768C275.246 0.509768 284.139 2.2884 292.547 5.84568C300.956 9.40293 308.232 14.4154 314.376 20.8832C320.52 27.0276 325.371 34.3038 328.929 42.7118C332.486 51.1199 334.264 60.0131 334.264 69.3913V391H305.16V283.797H207.658V391H178.553V283.797H158.18V256.633H178.553V69.3913C178.553 60.0131 180.332 51.1199 183.889 42.7118C187.447 34.3038 192.297 27.0276 198.442 20.8832C204.91 14.4154 212.347 9.40293 220.756 5.84568C229.164 2.2884 238.057 0.509768 247.435 0.509768H265.868ZM305.16 67.451C305.16 56.4558 301.279 47.0776 293.518 39.3163C286.08 31.555 276.863 27.6743 265.868 27.6743H247.435C236.44 27.6743 227.062 31.555 219.3 39.3163C211.539 47.0776 207.658 56.4558 207.658 67.451V256.633H305.16V67.451ZM514.313 192.602V67.451C514.313 56.4558 510.432 47.0776 502.671 39.3163C495.233 31.555 486.016 27.6743 475.021 27.6743H456.588C445.593 27.6743 436.215 31.555 428.454 39.3163C420.692 47.0776 416.812 56.4558 416.812 67.451V325.999C416.812 336.994 420.692 346.373 428.454 354.134C436.215 361.895 445.593 365.776 456.588 365.776H475.021C486.016 365.776 495.233 361.895 502.671 354.134C510.432 346.373 514.313 336.994 514.313 325.999V283.797H455.133V256.633H543.418V324.059C543.418 333.76 541.639 342.815 538.082 351.223C534.525 359.308 529.674 366.584 523.529 373.052C517.385 379.196 510.109 384.047 501.701 387.604C493.293 391.162 484.4 392.94 475.021 392.94H456.588C447.21 392.94 438.317 391.162 429.909 387.604C421.501 384.047 414.063 379.196 407.595 373.052C401.451 366.584 396.6 359.308 393.043 351.223C389.485 342.815 387.707 333.76 387.707 324.059V69.3913C387.707 60.0131 389.485 51.1199 393.043 42.7118C396.6 34.3038 401.451 27.0276 407.595 20.8832C414.063 14.4154 421.501 9.40293 429.909 5.84568C438.317 2.2884 447.21 0.509768 456.588 0.509768H475.021C484.4 0.509768 493.293 2.2884 501.701 5.84568C510.109 9.40293 517.385 14.4154 523.529 20.8832C529.674 27.0276 534.525 34.3038 538.082 42.7118C541.639 51.1199 543.418 60.0131 543.418 69.3913V192.602H514.313ZM682.033 0.509768C691.412 0.509768 700.305 2.2884 708.713 5.84568C717.121 9.40293 724.397 14.4154 730.542 20.8832C736.686 27.0276 741.537 34.3038 745.094 42.7118C748.651 51.1199 750.43 60.0131 750.43 69.3913V324.059C750.43 333.76 748.651 342.815 745.094 351.223C741.537 359.308 736.686 366.584 730.542 373.052C724.397 379.196 717.121 384.047 708.713 387.604C700.305 391.162 691.412 392.94 682.033 392.94H663.6C654.222 392.94 645.329 391.162 636.921 387.604C628.513 384.047 621.075 379.196 614.607 373.052C608.463 366.584 603.612 359.308 600.055 351.223C596.497 342.815 594.719 333.76 594.719 324.059V69.3913C594.719 60.0131 596.497 51.1199 600.055 42.7118C603.612 34.3038 608.463 27.0276 614.607 20.8832C621.075 14.4154 628.513 9.40293 636.921 5.84568C645.329 2.2884 654.222 0.509768 663.6 0.509768H682.033ZM721.325 67.451C721.325 56.4558 717.444 47.0776 709.683 39.3163C702.245 31.555 693.029 27.6743 682.033 27.6743H663.6C652.605 27.6743 643.227 31.555 635.466 39.3163C627.704 47.0776 623.824 56.4558 623.824 67.451V325.999C623.824 336.994 627.704 346.373 635.466 354.134C643.227 361.895 652.605 365.776 663.6 365.776H682.033C693.029 365.776 702.245 361.895 709.683 354.134C717.444 346.373 721.325 336.994 721.325 325.999V67.451ZM899.695 0.509768C909.073 0.509768 917.966 2.2884 926.374 5.84568C934.782 9.40293 942.058 14.4154 948.203 20.8832C954.347 27.0276 959.198 34.3038 962.755 42.7118C966.312 51.1199 968.091 60.0131 968.091 69.3913V391H938.986V283.797H841.485V391H812.38V283.797H792.007V256.633H812.38V69.3913C812.38 60.0131 814.159 51.1199 817.716 42.7118C821.273 34.3038 826.124 27.0276 832.268 20.8832C838.736 14.4154 846.174 9.40293 854.582 5.84568C862.99 2.2884 871.883 0.509768 881.262 0.509768H899.695ZM938.986 67.451C938.986 56.4558 935.105 47.0776 927.344 39.3163C919.906 31.555 910.69 27.6743 899.695 27.6743H881.262C870.266 27.6743 860.888 31.555 853.127 39.3163C845.366 47.0776 841.485 56.4558 841.485 67.451V256.633H938.986V67.451ZM1228.46 2.4501C1237.84 2.4501 1246.73 4.22873 1255.14 7.786C1263.55 11.3433 1270.83 16.3558 1276.97 22.8235C1283.44 28.9679 1288.45 36.2441 1292.01 44.6521C1295.56 53.0602 1297.34 61.9534 1297.34 71.3316V138.273C1297.34 147.651 1295.56 156.544 1292.01 164.952C1288.45 173.037 1283.44 180.151 1276.97 186.296C1270.83 192.44 1263.55 197.291 1255.14 200.848C1246.73 204.406 1237.84 206.184 1228.46 206.184H1170.74V391H1141.63V206.184H1121.26V179.02H1141.63V2.4501H1228.46ZM1268.24 69.3913C1268.24 58.3961 1264.36 49.0179 1256.6 41.2566C1248.84 33.4953 1239.46 29.6146 1228.46 29.6146H1170.74V179.02H1228.46C1239.46 179.02 1248.84 175.139 1256.6 167.378C1264.36 159.616 1268.24 150.238 1268.24 139.243V69.3913ZM1381.07 391H1351.96V206.184H1331.59V179.02H1351.96V2.4501H1438.79C1448.17 2.4501 1457.06 4.22873 1465.47 7.786C1473.88 11.3433 1481.15 16.3558 1487.3 22.8235C1493.77 28.9679 1498.78 36.2441 1502.34 44.6521C1505.89 53.0602 1507.67 61.9534 1507.67 71.3316V138.273C1507.67 150.562 1504.44 161.395 1497.97 170.773C1491.83 179.828 1483.74 187.104 1473.72 192.602C1483.74 198.099 1491.83 205.537 1497.97 214.916C1504.44 223.97 1507.67 234.481 1507.67 246.446V391H1478.57V245.476C1478.57 234.481 1474.69 225.264 1466.92 217.826C1459.16 210.065 1449.79 206.184 1438.79 206.184H1381.07V391ZM1381.07 179.02H1438.79C1449.79 179.02 1459.16 175.139 1466.92 167.378C1474.69 159.616 1478.57 150.238 1478.57 139.243V69.3913C1478.57 58.3961 1474.69 49.0179 1466.92 41.2566C1459.16 33.4953 1449.79 29.6146 1438.79 29.6146H1381.07V179.02ZM1592.63 391H1563.53V2.4501H1592.63V391ZM1848.62 0.509768C1857.99 0.509768 1866.89 2.2884 1875.29 5.84568C1883.7 9.40293 1890.98 14.4154 1897.12 20.8832C1903.59 27.0276 1908.6 34.3038 1912.16 42.7118C1915.72 51.1199 1917.5 60.0131 1917.5 69.3913V391H1888.39V67.451C1888.39 56.4558 1884.51 47.0776 1876.75 39.3163C1868.99 31.555 1859.61 27.6743 1848.62 27.6743H1836.97C1825.98 27.6743 1816.6 31.555 1808.84 39.3163C1801.4 47.0776 1797.68 56.4558 1797.68 67.451V391H1768.58V67.451C1768.58 56.4558 1764.7 47.0776 1756.93 39.3163C1749.17 31.555 1739.8 27.6743 1728.8 27.6743H1717.16C1706.16 27.6743 1696.78 31.555 1689.02 39.3163C1681.26 47.0776 1677.38 56.4558 1677.38 67.451V391H1648.28V69.3913C1648.28 60.0131 1650.06 51.1199 1653.61 42.7118C1657.17 34.3038 1662.02 27.0276 1668.17 20.8832C1674.63 14.4154 1682.07 9.40293 1690.48 5.84568C1698.89 2.2884 1707.78 0.509768 1717.16 0.509768H1728.8C1740.77 0.509768 1751.28 3.58196 1760.33 9.72633C1769.71 15.8707 1777.31 23.7937 1783.13 33.4953C1788.63 23.7937 1796.06 15.8707 1805.44 9.72633C1814.82 3.58196 1825.33 0.509768 1836.97 0.509768H1848.62ZM2007.23 179.02H2085.33V206.184H2007.23V324.059C2007.23 335.054 2011.11 344.432 2018.87 352.194C2026.64 359.955 2036.01 363.835 2047.01 363.835H2111.04V391H2047.01C2037.63 391 2028.74 389.221 2020.33 385.664C2011.92 382.107 2004.48 377.256 1998.02 371.112C1991.87 364.644 1987.02 357.368 1983.46 349.283C1979.91 340.875 1978.13 331.82 1978.13 322.118V206.184H1957.75V179.02H1978.13V71.3316C1978.13 61.9534 1979.91 53.0602 1983.46 44.6521C1987.02 36.2441 1991.87 28.9679 1998.02 22.8235C2004.48 16.3558 2011.92 11.3433 2020.33 7.786C2028.74 4.22873 2037.63 2.4501 2047.01 2.4501H2111.04V29.6146H2047.01C2036.01 29.6146 2026.64 33.4953 2018.87 41.2566C2011.11 49.0179 2007.23 58.3961 2007.23 69.3913V179.02Z" fill="#1C4855"/>
</svg>
