<svg width="1793" height="1200" viewBox="0 0 1793 1200" fill="none" xmlns="http://www.w3.org/2000/svg">
<path d="M24 1039.6C24 1039.6 135.372 835.262 262.182 788.714C419.324 731.031 524.58 949.774 679.559 886.506C753.922 856.148 820.615 767.198 859.902 705.303C876.207 679.614 917.288 679.636 933.572 705.339C972.783 767.233 1039.36 856.154 1113.71 886.506C1268.69 949.774 1373.94 731.031 1531.08 788.714C1657.89 835.262 1769.27 1039.6 1769.27 1039.6M190.273 1024.78C190.273 1024.78 248.98 951.607 299.968 923.132C446.563 841.264 565.169 1092.87 718.073 1023.5C774.662 997.825 828.293 933.894 863.078 885.16C879.244 862.511 914.259 862.531 930.383 885.21C965.025 933.937 1018.41 997.834 1074.97 1023.5C1227.88 1092.87 1346.48 841.264 1493.08 923.132C1544.07 951.607 1602.77 1024.78 1602.77 1024.78M318.129 1113.22C318.129 1113.22 348.795 1076.16 374.123 1059.57C484.431 987.275 565.986 1210.17 692.397 1172.58C756.174 1153.62 839.051 1072.76 876.648 1033.36C887.491 1021.99 906.021 1022.01 916.844 1033.39C954.32 1072.81 1036.89 1153.63 1100.65 1172.58C1227.06 1210.17 1308.62 987.275 1418.92 1059.57C1444.25 1076.16 1474.92 1113.22 1474.92 1113.22M1769.27 161.294C1769.27 161.294 1657.89 365.627 1531.08 412.175C1373.94 469.858 1268.69 251.115 1113.71 314.383C1039.35 344.738 972.77 433.593 933.56 495.427C917.274 521.111 876.222 521.133 859.913 495.463C820.628 433.627 753.931 344.744 679.56 314.383C524.582 251.115 419.326 469.858 262.183 412.175C135.374 365.627 24.0014 161.294 24.0014 161.294M1602.77 176.108C1602.77 176.108 1544.07 249.282 1493.08 277.757C1346.48 359.625 1227.88 108.019 1074.97 177.39C1018.45 203.032 965.066 266.828 930.389 315.533C914.256 338.192 879.262 338.203 863.105 315.56C828.349 266.852 774.823 203.037 718.293 177.39C565.389 108.019 446.783 359.625 300.188 277.757C249.2 249.282 190.493 176.108 190.493 176.108M1474.92 87.6723C1474.92 87.6723 1444.25 124.725 1418.92 141.324C1308.62 213.614 1227.06 -9.27952 1100.65 28.3045C1037.01 47.2259 954.62 129.342 917.049 169.631C906.185 181.281 887.337 181.29 876.461 169.651C838.823 129.37 756.268 47.229 692.617 28.3045C566.206 -9.27952 484.651 213.614 374.343 141.324C349.014 124.725 318.349 87.6723 318.349 87.6723" stroke="#EFE3D2" stroke-width="46" stroke-linecap="round"/>
</svg>
